<?xml version="1.0" standalone="no"?>
<!DOCTYPE svg PUBLIC "-//W3C//DTD SVG 20010904//EN"
 "http://www.w3.org/TR/2001/REC-SVG-20010904/DTD/svg10.dtd">
<svg version="1.0" xmlns="http://www.w3.org/2000/svg"
 width="500.000000pt" height="500.000000pt" viewBox="0 0 500.000000 500.000000"
 preserveAspectRatio="xMidYMid meet">

<g transform="translate(0.000000,500.000000) scale(0.100000,-0.100000)"
fill="#000000" stroke="none">
<path d="M1790 4088 c-47 -11 -211 -52 -365 -90 -154 -39 -296 -71 -315 -72
l-35 -1 -3 62 c-2 40 -8 66 -19 74 -23 20 -39 -9 -47 -84 -9 -81 -24 -102 -88
-122 -216 -71 -745 -269 -756 -282 -7 -10 -11 -22 -9 -28 7 -22 58 -14 168 25
566 206 635 228 650 213 8 -8 5 -71 -10 -220 -39 -391 -55 -646 -71 -1141 -11
-317 -8 -352 25 -352 35 0 45 41 45 175 0 424 74 1513 106 1563 8 13 27 27 41
33 40 15 469 124 647 164 183 41 198 48 194 78 -4 30 -50 32 -158 5z"/>
<path d="M3721 3771 c-25 -25 -62 -142 -96 -306 -26 -126 -28 -132 -102 -250
-111 -176 -159 -241 -243 -326 -87 -89 -128 -106 -164 -70 -19 20 -21 32 -20
149 1 77 8 164 19 222 10 52 19 113 19 135 1 34 -2 40 -21 43 -17 3 -26 -6
-41 -35 -11 -21 -22 -52 -26 -68 -7 -34 -129 -188 -218 -277 -95 -96 -125 -77
-172 111 -15 57 -34 119 -42 137 -20 41 -59 57 -100 39 -64 -27 -169 -178
-264 -378 -36 -75 -50 -97 -55 -84 -8 18 14 122 92 441 44 178 45 190 29 202
-39 28 -60 -10 -105 -191 -25 -100 -32 -115 -73 -160 -25 -28 -74 -84 -109
-125 -58 -66 -191 -180 -212 -180 -4 0 -13 11 -19 25 -22 49 17 269 83 472 37
111 36 138 -4 138 -26 0 -34 -10 -94 -120 -35 -66 -70 -126 -77 -133 -10 -10
-21 -8 -61 9 -42 18 -53 20 -87 10 -80 -24 -153 -120 -210 -273 -38 -105 -49
-224 -24 -263 22 -33 68 -33 112 0 36 28 117 130 208 265 83 123 85 122 79
-18 -4 -100 -2 -122 14 -152 15 -29 24 -36 55 -38 59 -5 114 31 240 158 123
123 120 122 97 29 -15 -60 -39 -240 -39 -294 0 -90 43 -131 86 -83 12 13 38
70 59 128 75 209 156 366 245 478 39 50 62 63 75 43 3 -5 18 -59 34 -120 33
-123 59 -174 101 -196 71 -37 134 -4 245 127 l85 100 0 -124 c0 -108 3 -129
23 -168 29 -60 79 -86 135 -71 89 25 198 131 332 326 58 85 61 88 54 50 -14
-67 -10 -347 4 -372 17 -30 52 -29 81 1 12 13 58 115 102 227 85 217 181 409
204 409 21 0 23 -8 36 -136 13 -138 26 -181 61 -207 24 -18 27 -18 56 -3 17 9
65 60 105 114 108 141 98 138 166 63 53 -59 60 -64 107 -68 57 -6 104 13 166
69 65 59 228 249 228 268 0 21 -24 43 -43 38 -7 -2 -55 -51 -105 -109 -191
-222 -242 -242 -317 -125 -71 112 -106 102 -239 -67 -38 -48 -73 -87 -78 -87
-17 0 -28 53 -38 172 -10 123 -25 169 -60 188 -62 33 -165 -111 -279 -393 -94
-231 -109 -212 -71 87 22 176 58 354 95 471 29 92 31 118 11 134 -12 10 -19 8
-35 -8z m-2090 -651 c10 -6 19 -18 19 -26 0 -22 -161 -261 -212 -314 l-43 -45
-3 32 c-8 82 56 240 129 315 46 49 72 58 110 38z"/>
<path d="M3101 3576 c-18 -21 -9 -66 14 -82 29 -19 69 2 73 39 4 36 -13 57
-48 57 -15 0 -33 -6 -39 -14z"/>
<path d="M291 1781 c-15 -26 -4 -49 30 -67 16 -8 29 -18 29 -23 0 -13 -25 -20
-49 -14 -27 7 -27 -14 0 -22 54 -17 98 28 64 65 -10 11 -26 22 -37 26 -26 8
-17 29 13 29 39 0 37 20 -3 23 -28 2 -39 -1 -47 -17z"/>
<path d="M511 1779 c-5 -13 -19 -46 -30 -72 -25 -58 -25 -57 -6 -57 8 0 15 7
15 15 0 10 10 15 30 15 18 0 33 -6 36 -15 5 -13 34 -22 34 -11 0 9 -54 131
-61 140 -5 5 -12 -1 -18 -15z m19 -73 c-14 -14 -24 0 -16 21 6 15 8 15 16 3 6
-9 5 -19 0 -24z"/>
<path d="M680 1725 l0 -75 40 0 c76 0 113 67 69 124 -17 21 -29 26 -65 26
l-44 0 0 -75z m78 39 c40 -28 23 -84 -25 -84 -21 0 -23 4 -23 50 0 54 10 61
48 34z"/>
<path d="M900 1725 c0 -60 3 -75 15 -75 9 0 15 9 15 25 0 14 6 25 13 25 8 0
20 -11 27 -25 7 -14 22 -25 32 -25 18 0 18 1 1 26 -13 21 -14 30 -5 45 27 44
1 79 -59 79 l-39 0 0 -75z m70 40 c15 -18 5 -35 -21 -35 -12 0 -19 7 -19 18 0
33 20 42 40 17z"/>
<path d="M1110 1742 c0 -44 5 -63 18 -75 23 -21 51 -22 80 -1 19 13 22 24 22
75 0 45 -3 59 -15 59 -10 0 -15 -15 -17 -57 -3 -54 -5 -58 -28 -58 -23 0 -25
4 -28 58 -2 42 -7 57 -17 57 -12 0 -15 -14 -15 -58z"/>
<path d="M1330 1725 l0 -75 50 0 c38 0 50 4 50 15 0 10 -11 15 -35 15 l-35 0
0 60 c0 47 -3 60 -15 60 -12 0 -15 -15 -15 -75z"/>
<path d="M1660 1725 c0 -60 3 -75 15 -75 9 0 15 9 15 23 0 17 8 25 33 32 25 8
33 16 35 38 5 39 -14 57 -59 57 l-39 0 0 -75z m68 27 c3 -17 -2 -22 -17 -22
-16 0 -21 6 -21 26 0 33 33 30 38 -4z"/>
<path d="M1872 1728 c-18 -44 -26 -75 -20 -77 6 -2 15 4 20 13 11 20 57 21 64
1 7 -16 34 -21 34 -6 0 12 -58 141 -63 141 -2 0 -18 -33 -35 -72z m48 -20 c0
-5 -7 -8 -15 -8 -17 0 -18 2 -9 25 5 13 8 14 15 3 5 -7 9 -16 9 -20z"/>
<path d="M2072 1788 c-21 -21 -13 -48 18 -66 33 -19 36 -48 5 -45 -11 1 -27 0
-35 -3 -13 -4 -13 -6 0 -14 21 -14 64 -12 78 2 22 22 14 57 -18 73 -41 21 -41
50 1 41 22 -4 29 -2 27 7 -6 17 -60 21 -76 5z"/>
<path d="M2250 1725 c0 -60 3 -75 15 -75 10 0 15 10 15 30 0 28 3 30 35 30 32
0 35 -2 35 -30 0 -20 5 -30 15 -30 12 0 15 15 15 75 0 60 -3 75 -15 75 -10 0
-15 -10 -15 -30 0 -28 -3 -30 -35 -30 -32 0 -35 2 -35 30 0 20 -5 30 -15 30
-12 0 -15 -15 -15 -75z"/>
<path d="M2493 1725 c-22 -52 -27 -75 -18 -75 7 0 15 7 19 15 3 9 18 15 36 15
20 0 30 -5 30 -15 0 -8 9 -15 20 -15 19 0 19 2 -6 58 -15 31 -28 65 -31 75 -9
29 -17 20 -50 -58z m47 -11 c0 -8 -4 -14 -10 -14 -5 0 -10 9 -10 21 0 11 5 17
10 14 6 -3 10 -13 10 -21z"/>
<path d="M2831 1781 c-56 -56 10 -153 83 -125 27 10 18 24 -17 24 -38 0 -57
15 -57 45 0 33 17 50 50 50 43 0 42 19 -2 23 -27 2 -43 -3 -57 -17z"/>
<path d="M3030 1725 c0 -43 4 -75 10 -75 6 0 10 14 10 30 0 28 2 30 40 30 38
0 40 -2 40 -30 0 -16 5 -30 10 -30 6 0 10 32 10 75 0 72 -15 105 -22 48 -3
-24 -8 -28 -40 -31 -36 -3 -38 -2 -38 27 0 17 -4 31 -10 31 -6 0 -10 -32 -10
-75z"/>
<path d="M3272 1777 c-29 -31 -28 -72 3 -102 30 -30 64 -32 99 -4 33 26 36 79
6 109 -28 28 -81 26 -108 -3z m79 -7 c22 -12 26 -59 7 -78 -7 -7 -21 -12 -33
-12 -43 0 -60 47 -28 82 19 21 27 22 54 8z"/>
<path d="M3515 1734 c14 -37 25 -68 25 -70 0 -2 4 -4 8 -4 5 0 16 17 26 38
l18 37 18 -44 17 -44 26 69 c31 81 32 84 12 84 -8 0 -17 -14 -21 -35 -9 -49
-19 -51 -34 -5 -7 22 -20 40 -28 40 -8 0 -12 -6 -9 -13 3 -7 -1 -26 -8 -42
-13 -31 -13 -32 -34 28 -6 15 -17 27 -26 27 -12 0 -11 -11 10 -66z"/>
<path d="M3780 1725 l0 -75 31 0 c32 0 69 15 81 34 4 6 8 26 8 44 0 45 -30 72
-80 72 l-40 0 0 -75z m74 42 c22 -16 25 -65 5 -78 -8 -5 -24 -9 -36 -9 -20 0
-23 5 -23 43 0 59 16 72 54 44z"/>
<path d="M4000 1725 c0 -60 3 -75 15 -75 10 0 15 10 15 30 0 28 3 30 35 30 32
0 35 -2 35 -30 0 -20 5 -30 15 -30 12 0 15 15 15 75 0 60 -3 75 -15 75 -10 0
-15 -10 -15 -30 0 -28 -3 -30 -35 -30 -32 0 -35 2 -35 30 0 20 -5 30 -15 30
-12 0 -15 -15 -15 -75z"/>
<path d="M4230 1742 c0 -44 5 -63 18 -75 23 -21 51 -22 80 -1 19 13 22 24 22
75 0 45 -3 59 -15 59 -10 0 -15 -15 -17 -57 -3 -54 -5 -58 -28 -58 -23 0 -25
4 -28 58 -2 42 -7 57 -17 57 -12 0 -15 -14 -15 -58z"/>
<path d="M4450 1725 c0 -60 3 -75 15 -75 9 0 15 9 15 25 0 14 6 25 13 25 8 0
20 -11 27 -25 7 -14 22 -25 32 -25 18 0 18 1 1 26 -13 21 -14 30 -5 45 27 44
1 79 -59 79 l-39 0 0 -75z m70 40 c15 -18 5 -35 -21 -35 -12 0 -19 7 -19 18 0
33 20 42 40 17z"/>
<path d="M4650 1795 c0 -3 11 -28 25 -55 14 -27 25 -58 25 -70 0 -11 7 -20 15
-20 9 0 15 9 15 25 0 14 11 48 25 75 25 48 25 50 5 50 -11 0 -20 -6 -20 -13 0
-7 -6 -22 -14 -32 -13 -18 -14 -17 -30 13 -9 18 -23 32 -31 32 -8 0 -15 -2
-15 -5z"/>
</g>
</svg>
